<svg xmlns="http://www.w3.org/2000/svg" viewBox="0 0 1311.66 269.44">
    <defs>
        <style>.cls-1{fill:#fff}</style>
    </defs>
    <g id="Ebene_2" data-name="Ebene 2">
        <g id="Layer_1" data-name="Layer 1">
            <path fill="#fff" className="cls-1" d="M82.83 173.32h59.63l21.2-58.15H82.83V61.3h100.39l21.13-57.98H0v266.12h82.83v-96.12zm146.86-170h82.83v266.12h-82.83zm222.66 170h59.63l21.19-58.15h-80.82V61.3h100.39l21.13-57.98H369.52v266.12h82.83v-96.12zm160.25 96.12l10.4-35.75h93.6l10.82 35.75H811L714.12 3.32H628l-97 266.12zm57.15-197.75l33.11 110.86h-65.11zm104.71-8.97a37.14 37.14 0 0011.65 7.89 36.73 36.73 0 0028.61 0 37.18 37.18 0 0019.55-19.55 35.49 35.49 0 002.9-14.3 35.54 35.54 0 00-2.9-14.31A37.18 37.18 0 00814.72 2.9a36.73 36.73 0 00-28.61 0 37.27 37.27 0 00-19.55 19.55 35.54 35.54 0 00-2.9 14.31 35.49 35.49 0 002.9 14.3 37.5 37.5 0 007.9 11.66m.35-37.83a29.45 29.45 0 016-9.41 26.58 26.58 0 018.8-6.16 27.95 27.95 0 0121.69 0 26.62 26.62 0 018.81 6.16 29.45 29.45 0 016 9.41 31.77 31.77 0 012.19 11.87 31.71 31.71 0 01-2.3 11.86 29.6 29.6 0 01-6 9.42 27.16 27.16 0 01-39.3 0 29.6 29.6 0 01-6-9.42 31.52 31.52 0 01-2.19-11.86 31.57 31.57 0 012.19-11.87" />
            <path fill="#fff" className="cls-1" d="M794 39.51h4.69l10.79 17.92h7.94l-11.2-18.23a13.39 13.39 0 008-3.16q2.85-2.64 2.85-8 0-6.62-3.92-9.42t-11.46-2.8h-15.43v41.61H794zm0-17.82h6.93a21.19 21.19 0 013 .2 8.86 8.86 0 012.7.81 5.12 5.12 0 012 1.74 5 5 0 01.77 2.95 6.77 6.77 0 01-.71 3.36 4.68 4.68 0 01-1.89 1.83 7.91 7.91 0 01-2.7.81 23.88 23.88 0 01-3.25.21H794zm517.66-18.37H861.88v266.12h449.78v-60.01H921.89V63.32h329.76v53.66h-298v60.01h358.01V3.32z" />
        </g>
    </g>
</svg>