<svg xmlns="http://www.w3.org/2000/svg" viewBox="0 0 339.429 108"><path d="M54.997 97.925l-4.906-12.641 47.421 2.438-2.129 20.232-40.386-10.03zM66.36 0L0 31.348l10.263 47.237H23.8l-2.338-33.79 2.077-.644 8.139 34.434H45.74l-.522-41.16 2.077-.644 7.114 41.804H69.3l3.51-49.718 2.077-.645 3.685 50.363H98.26l6.93-69.137L66.36 0zm263.23 108h-27.965l.491-4.72 19.98-.777-.088-2.178-19.203-3.338 1.188-11.853h23.228l.456 4.72-18.07.675-.082 2.475 18.89 3.193L329.588 108zM160.775 94.207L161.53 108h-29.122l2.291-22.866h25.56l.287 4.72-19.79.458-.626 12.546 14.392.421.087-4.344-6.875-.229.29-4.278 12.752-.221zm128.838 9.072l.182 4.721h-25.918l.738-22.866h24.724l-.152 4.711-18.326.43.14 3.99 13.91.173-.126 4.295-13.624.16.138 3.942 18.314.444zM251.338 108l-2.292-22.866h-6.58l-9.454 10.9-9.454-10.9h-6.58L214.687 108h7.73l.74-14.834 9.855 10.113 9.855-10.113.74 14.834h7.73zM218.85 1.397h-15.47l-1.408 70.714h18.692L218.85 1.397zm66.324 70.714h-53.537l1.879-70.683h48.234l3.424 70.683zm-18.168-55.878l-17.854-.54.565 41.587 17.072-.55.217-40.497zm72.423.64l-1.722-15.476h-47.524l.401 13.786 15.201.526 1.557 56.402h18.73l-5.603-55.894 18.96.656zM167.715 47.189l-13.075 7.143-.49 17.78h-18.145l5.59-55.777-11.593.388 1.705-15.326h51.827l7.216 33.209-10.56 5.768 13.233 31.737h-20.304l-5.404-24.922zm-12.613-9.607l17.207-8.129-1.7-14.088-14.907.498-.6 21.719zm39.644 64.813l-12.706-.164-1.213 5.769H173l6.193-22.866h18.365L203.751 108h-7.827l-1.178-5.605zm-1.055-5.016l-1.577-7.507-7.548.341-1.573 7.482 10.698-.316z" fill="#fff"/></svg>