<svg xmlns="http://www.w3.org/2000/svg" viewBox="0 0 107 37"><path d="M105.121 26.105h-7.507v-9.504h-1.879v9.504h-7.508V2.345h7.508V9h5.632l3.754 3.8v13.305zm-18.769-9.504h-7.508v1.903h7.508v7.601H75.087l-3.754-3.804v-9.504l3.754-3.8h11.265V16.6zm-16.897 0h-6.572v1.903h6.572v7.601H59.129l-3.754-3.8V2.344h7.508V9h6.572v7.6zM53.5 7.098h-7.508V2.346H53.5v4.752zm0 19.007h-7.508V8.996H53.5v17.11zm-9.386 0H21.587l-3.754-3.804V8.996h7.508V18.5h1.879V8.996h7.507V18.5h1.879V8.996h7.508v17.11zm-28.16-9.504H9.387v1.903h6.572v7.601H5.633l-3.754-3.804V2.346h7.507V9h6.572v7.6h-.003zm86.353-9.503h-4.693V.444H87.309l-4.739 6.65h-8.422l-2.815 2.853v-2.85h-6.572V.445H44.114v6.65h-29.05L10.327.444H0v22.808l13.14 13.304h13.14v-3.8l3.754 3.8h25.341v-3.8l3.757 3.8h12.201v-3.8l3.754 3.8h23.466L107 28.004V11.85l-4.693-4.752z" fill="#fff"/></svg>